<svg width="67" height="70" viewBox="0 0 67 70" fill="none" xmlns="http://www.w3.org/2000/svg">
<path d="M67 9.85915L67 60.1408C67 62.7556 66.0058 65.2634 64.2361 67.1123C62.4664 68.9613 60.0661 70 57.5634 70H39.8062C32.8889 70 27.7299 63.5483 29.1037 56.7688C30.1154 51.7761 34.5195 48.1127 39.6137 48.1127H42.9805C46.1266 48.1127 48.8354 45.8923 49.4528 42.8074C50.2704 38.7227 47.1462 34.9113 42.9805 34.9113H39.6247C36.5083 34.9113 34.1738 32.0556 34.7936 29.0014C35.2598 26.7036 37.28 25.0521 39.6247 25.0521H51.2827C54.6707 25.0521 57.5872 22.6595 58.2493 19.3368C59.1249 14.9426 55.7633 10.8451 51.2827 10.8451H35.1381C28.0071 10.8451 21.8619 15.8655 20.4395 22.8531L11.1231 68.6222C10.9599 69.424 10.2548 70 9.43661 70C6.93386 70 4.53362 68.9613 2.76391 67.1123C0.994203 65.2634 -9.03268e-06 62.7556 -8.65632e-06 60.1408L-1.41907e-06 9.85915C-1.04271e-06 7.24434 0.994212 4.73663 2.76392 2.88768C4.53363 1.03873 6.93387 0 9.43662 0L57.5634 0C60.0661 0 62.4664 1.03873 64.2361 2.88768C66.0058 4.73663 67 7.24434 67 9.85915Z" fill="url(#paint0_linear_3_4)"/>
<defs>
<linearGradient id="paint0_linear_3_4" x1="0.0583372" y1="2.06568" x2="64.1118" y2="10.744" gradientUnits="userSpaceOnUse">
<stop stop-color="#4895EF"/>
<stop offset="1" stop-color="#5E56F8"/>
</linearGradient>
</defs>
</svg>
