<svg width="33" height="33" viewBox="0 0 33 33" fill="none" xmlns="http://www.w3.org/2000/svg">
<path d="M6.875 6.875V26.125C6.875 26.4897 7.01987 26.8394 7.27773 27.0973C7.53559 27.3551 7.88533 27.5 8.25 27.5H12.375V24.75H9.625V8.25H12.375V5.5H8.25C7.88533 5.5 7.53559 5.64487 7.27773 5.90273C7.01987 6.16059 6.875 6.51033 6.875 6.875ZM26.4578 5.54125L15.4577 2.79125C15.2551 2.74071 15.0436 2.73699 14.8393 2.78039C14.635 2.82379 14.4433 2.91316 14.2787 3.04172C14.1141 3.17027 13.9809 3.33464 13.8893 3.52234C13.7977 3.71004 13.7501 3.91614 13.75 4.125V28.875C13.7495 29.084 13.7968 29.2904 13.8882 29.4784C13.9797 29.6664 14.1129 29.831 14.2776 29.9596C14.4423 30.0883 14.6343 30.1776 14.8388 30.2208C15.0434 30.264 15.2551 30.2599 15.4577 30.2087L26.4578 27.4587C26.7553 27.3845 27.0196 27.2129 27.2084 26.9713C27.3973 26.7296 27.4999 26.4317 27.5 26.125V6.875C27.4999 6.56829 27.3973 6.27041 27.2084 6.02874C27.0196 5.78707 26.7553 5.61548 26.4578 5.54125ZM20.625 16.7585C20.6092 17.1125 20.4574 17.4468 20.2013 17.6917C19.9451 17.9367 19.6044 18.0734 19.25 18.0734C18.8956 18.0734 18.5549 17.9367 18.2987 17.6917C18.0426 17.4468 17.8908 17.1125 17.875 16.7585V16.2401C17.8752 15.8755 18.0202 15.5258 18.2782 15.2681C18.5362 15.0103 18.886 14.8656 19.2507 14.8658C19.6154 14.866 19.965 15.011 20.2228 15.269C20.4805 15.527 20.6252 15.8768 20.625 16.2415V16.7585Z" fill="white"/>
</svg>
