<svg width="33" height="31" viewBox="0 0 33 31" fill="none" xmlns="http://www.w3.org/2000/svg">
<path d="M9.99996 8.99992C11.2886 8.99992 12.3333 7.95525 12.3333 6.66659C12.3333 5.37792 11.2886 4.33325 9.99996 4.33325C8.71129 4.33325 7.66663 5.37792 7.66663 6.66659C7.66663 7.95525 8.71129 8.99992 9.99996 8.99992Z" fill="url(#paint0_linear_101_110)"/>
<path d="M13.5 10.1667H6.50004C6.19062 10.1667 5.89388 10.2897 5.67508 10.5085C5.45629 10.7272 5.33337 11.024 5.33337 11.3334V19.5001H7.66671V27.6667H12.3334V19.5001H14.6667V11.3334C14.6667 11.024 14.5438 10.7272 14.325 10.5085C14.1062 10.2897 13.8095 10.1667 13.5 10.1667Z" fill="url(#paint1_linear_101_110)"/>
<path d="M22.8333 8.99992C24.122 8.99992 25.1667 7.95525 25.1667 6.66659C25.1667 5.37792 24.122 4.33325 22.8333 4.33325C21.5447 4.33325 20.5 5.37792 20.5 6.66659C20.5 7.95525 21.5447 8.99992 22.8333 8.99992Z" fill="url(#paint2_linear_101_110)"/>
<path d="M26.5783 11.0182C26.5078 10.7659 26.3543 10.5446 26.1427 10.3901C25.931 10.2356 25.6735 10.1569 25.4117 10.1666H20.1617C19.8998 10.1569 19.6423 10.2356 19.4307 10.3901C19.219 10.5446 19.0656 10.7659 18.995 11.0182L17 18.3332H19.3333L18.1667 22.9999H20.5V27.6666H25.1667V22.9999H27.5L26.3333 18.3332H28.6667L26.5783 11.0182Z" fill="url(#paint3_linear_101_110)"/>
<defs>
<linearGradient id="paint0_linear_101_110" x1="9.99996" y1="4.33325" x2="9.99996" y2="11.4666" gradientUnits="userSpaceOnUse">
<stop stop-color="white"/>
<stop offset="1" stop-color="white" stop-opacity="0"/>
</linearGradient>
<linearGradient id="paint1_linear_101_110" x1="10" y1="10.1667" x2="10" y2="36.9166" gradientUnits="userSpaceOnUse">
<stop stop-color="white"/>
<stop offset="1" stop-color="white" stop-opacity="0"/>
</linearGradient>
<linearGradient id="paint2_linear_101_110" x1="22.8333" y1="4.33325" x2="22.8333" y2="11.4666" gradientUnits="userSpaceOnUse">
<stop stop-color="white"/>
<stop offset="1" stop-color="white" stop-opacity="0"/>
</linearGradient>
<linearGradient id="paint3_linear_101_110" x1="22.8333" y1="10.1658" x2="22.8333" y2="36.9169" gradientUnits="userSpaceOnUse">
<stop stop-color="white"/>
<stop offset="1" stop-color="white" stop-opacity="0"/>
</linearGradient>
</defs>
</svg>
