<svg width="33" height="31" viewBox="0 0 33 31" fill="none" xmlns="http://www.w3.org/2000/svg">
<path d="M9.99996 8.99967C11.2886 8.99967 12.3333 7.95501 12.3333 6.66634C12.3333 5.37768 11.2886 4.33301 9.99996 4.33301C8.71129 4.33301 7.66663 5.37768 7.66663 6.66634C7.66663 7.95501 8.71129 8.99967 9.99996 8.99967Z" fill="url(#paint0_linear_173_54)"/>
<path d="M9.99996 8.99967C11.2886 8.99967 12.3333 7.95501 12.3333 6.66634C12.3333 5.37768 11.2886 4.33301 9.99996 4.33301C8.71129 4.33301 7.66663 5.37768 7.66663 6.66634C7.66663 7.95501 8.71129 8.99967 9.99996 8.99967Z" fill="white"/>
<path d="M13.5 10.1665H6.50004C6.19062 10.1665 5.89388 10.2894 5.67508 10.5082C5.45629 10.727 5.33337 11.0238 5.33337 11.3332V19.4998H7.66671V27.6665H12.3334V19.4998H14.6667V11.3332C14.6667 11.0238 14.5438 10.727 14.325 10.5082C14.1062 10.2894 13.8095 10.1665 13.5 10.1665Z" fill="url(#paint1_linear_173_54)"/>
<path d="M13.5 10.1665H6.50004C6.19062 10.1665 5.89388 10.2894 5.67508 10.5082C5.45629 10.727 5.33337 11.0238 5.33337 11.3332V19.4998H7.66671V27.6665H12.3334V19.4998H14.6667V11.3332C14.6667 11.0238 14.5438 10.727 14.325 10.5082C14.1062 10.2894 13.8095 10.1665 13.5 10.1665Z" fill="white"/>
<path d="M22.8333 8.99967C24.122 8.99967 25.1667 7.95501 25.1667 6.66634C25.1667 5.37768 24.122 4.33301 22.8333 4.33301C21.5447 4.33301 20.5 5.37768 20.5 6.66634C20.5 7.95501 21.5447 8.99967 22.8333 8.99967Z" fill="url(#paint2_linear_173_54)"/>
<path d="M22.8333 8.99967C24.122 8.99967 25.1667 7.95501 25.1667 6.66634C25.1667 5.37768 24.122 4.33301 22.8333 4.33301C21.5447 4.33301 20.5 5.37768 20.5 6.66634C20.5 7.95501 21.5447 8.99967 22.8333 8.99967Z" fill="white"/>
<path d="M26.5783 11.018C26.5078 10.7656 26.3543 10.5444 26.1427 10.3899C25.931 10.2354 25.6735 10.1566 25.4117 10.1663H20.1617C19.8998 10.1566 19.6423 10.2354 19.4307 10.3899C19.219 10.5444 19.0656 10.7656 18.995 11.018L17 18.333H19.3333L18.1667 22.9997H20.5V27.6663H25.1667V22.9997H27.5L26.3333 18.333H28.6667L26.5783 11.018Z" fill="url(#paint3_linear_173_54)"/>
<path d="M26.5783 11.018C26.5078 10.7656 26.3543 10.5444 26.1427 10.3899C25.931 10.2354 25.6735 10.1566 25.4117 10.1663H20.1617C19.8998 10.1566 19.6423 10.2354 19.4307 10.3899C19.219 10.5444 19.0656 10.7656 18.995 11.018L17 18.333H19.3333L18.1667 22.9997H20.5V27.6663H25.1667V22.9997H27.5L26.3333 18.333H28.6667L26.5783 11.018Z" fill="white"/>
<defs>
<linearGradient id="paint0_linear_173_54" x1="9.99996" y1="4.33301" x2="9.99996" y2="11.4663" gradientUnits="userSpaceOnUse">
<stop stop-color="white"/>
<stop offset="1" stop-color="white" stop-opacity="0"/>
</linearGradient>
<linearGradient id="paint1_linear_173_54" x1="10" y1="10.1665" x2="10" y2="36.9164" gradientUnits="userSpaceOnUse">
<stop stop-color="white"/>
<stop offset="1" stop-color="white" stop-opacity="0"/>
</linearGradient>
<linearGradient id="paint2_linear_173_54" x1="22.8333" y1="4.33301" x2="22.8333" y2="11.4663" gradientUnits="userSpaceOnUse">
<stop stop-color="white"/>
<stop offset="1" stop-color="white" stop-opacity="0"/>
</linearGradient>
<linearGradient id="paint3_linear_173_54" x1="22.8333" y1="10.1655" x2="22.8333" y2="36.9166" gradientUnits="userSpaceOnUse">
<stop stop-color="white"/>
<stop offset="1" stop-color="white" stop-opacity="0"/>
</linearGradient>
</defs>
</svg>
