<svg width="33" height="33" viewBox="0 0 33 33" fill="none" xmlns="http://www.w3.org/2000/svg">
<path d="M16.5 20.625C13.97 20.625 13.75 19.4425 13.75 19.25H11C11 20.515 11.9075 22.7563 15.125 23.265V24.75H17.875V23.265C20.625 22.7975 22 21.0237 22 19.25C22 17.71 21.285 15.125 16.5 15.125C13.75 15.125 13.75 14.2588 13.75 13.75C13.75 13.2412 14.7125 12.375 16.5 12.375C18.2875 12.375 18.4112 13.255 18.425 13.75H21.175C21.1564 12.8133 20.8195 11.9108 20.2197 11.1911C19.6199 10.4713 18.793 9.97719 17.875 9.79V8.25H15.125V9.74875C12.375 10.2025 11 11.9763 11 13.75C11 15.29 11.715 17.875 16.5 17.875C19.25 17.875 19.25 18.81 19.25 19.25C19.25 19.69 18.3975 20.625 16.5 20.625Z" fill="url(#paint0_linear_101_120)"/>
<path d="M6.48218 2.35718H2.35718V5.10718H5.10718V28.4822C5.10718 28.8469 5.25204 29.1966 5.50991 29.4545C5.76777 29.7123 6.11751 29.8572 6.48218 29.8572H25.7322C26.0969 29.8572 26.4466 29.7123 26.7045 29.4545C26.9623 29.1966 27.1072 28.8469 27.1072 28.4822V5.10718H29.8572V2.35718H6.48218ZM24.3572 27.1072H7.85718V5.10718H24.3572V27.1072Z" fill="url(#paint1_linear_101_120)"/>
<defs>
<linearGradient id="paint0_linear_101_120" x1="16.5" y1="8.25" x2="16.5" y2="37.125" gradientUnits="userSpaceOnUse">
<stop stop-color="white"/>
<stop offset="1" stop-color="white" stop-opacity="0"/>
</linearGradient>
<linearGradient id="paint1_linear_101_120" x1="16.1072" y1="2.35718" x2="16.1072" y2="43.6072" gradientUnits="userSpaceOnUse">
<stop stop-color="white"/>
<stop offset="1" stop-color="white" stop-opacity="0"/>
</linearGradient>
</defs>
</svg>
