<svg width="33" height="33" viewBox="0 0 33 33" fill="none" xmlns="http://www.w3.org/2000/svg">
<path d="M16.5 20.625C13.97 20.625 13.75 19.4425 13.75 19.25H11C11 20.515 11.9075 22.7563 15.125 23.265V24.75H17.875V23.265C20.625 22.7975 22 21.0238 22 19.25C22 17.71 21.285 15.125 16.5 15.125C13.75 15.125 13.75 14.2587 13.75 13.75C13.75 13.2413 14.7125 12.375 16.5 12.375C18.2875 12.375 18.4112 13.255 18.425 13.75H21.175C21.1564 12.8133 20.8195 11.9108 20.2197 11.1911C19.6199 10.4713 18.793 9.97719 17.875 9.79V8.25H15.125V9.74875C12.375 10.2025 11 11.9763 11 13.75C11 15.29 11.715 17.875 16.5 17.875C19.25 17.875 19.25 18.81 19.25 19.25C19.25 19.69 18.3975 20.625 16.5 20.625Z" fill="url(#paint0_linear_173_64)"/>
<path d="M16.5 20.625C13.97 20.625 13.75 19.4425 13.75 19.25H11C11 20.515 11.9075 22.7563 15.125 23.265V24.75H17.875V23.265C20.625 22.7975 22 21.0238 22 19.25C22 17.71 21.285 15.125 16.5 15.125C13.75 15.125 13.75 14.2587 13.75 13.75C13.75 13.2413 14.7125 12.375 16.5 12.375C18.2875 12.375 18.4112 13.255 18.425 13.75H21.175C21.1564 12.8133 20.8195 11.9108 20.2197 11.1911C19.6199 10.4713 18.793 9.97719 17.875 9.79V8.25H15.125V9.74875C12.375 10.2025 11 11.9763 11 13.75C11 15.29 11.715 17.875 16.5 17.875C19.25 17.875 19.25 18.81 19.25 19.25C19.25 19.69 18.3975 20.625 16.5 20.625Z" fill="white"/>
<path d="M6.48212 2.35693H2.35712V5.10693H5.10712V28.4819C5.10712 28.8466 5.25198 29.1963 5.50985 29.4542C5.76771 29.7121 6.11744 29.8569 6.48212 29.8569H25.7321C26.0968 29.8569 26.4465 29.7121 26.7044 29.4542C26.9623 29.1963 27.1071 28.8466 27.1071 28.4819V5.10693H29.8571V2.35693H6.48212ZM24.3571 27.1069H7.85712V5.10693H24.3571V27.1069Z" fill="url(#paint1_linear_173_64)"/>
<path d="M6.48212 2.35693H2.35712V5.10693H5.10712V28.4819C5.10712 28.8466 5.25198 29.1963 5.50985 29.4542C5.76771 29.7121 6.11744 29.8569 6.48212 29.8569H25.7321C26.0968 29.8569 26.4465 29.7121 26.7044 29.4542C26.9623 29.1963 27.1071 28.8466 27.1071 28.4819V5.10693H29.8571V2.35693H6.48212ZM24.3571 27.1069H7.85712V5.10693H24.3571V27.1069Z" fill="white"/>
<defs>
<linearGradient id="paint0_linear_173_64" x1="16.5" y1="8.25" x2="16.5" y2="37.125" gradientUnits="userSpaceOnUse">
<stop stop-color="white"/>
<stop offset="1" stop-color="white" stop-opacity="0"/>
</linearGradient>
<linearGradient id="paint1_linear_173_64" x1="16.1071" y1="2.35693" x2="16.1071" y2="43.6069" gradientUnits="userSpaceOnUse">
<stop stop-color="white"/>
<stop offset="1" stop-color="white" stop-opacity="0"/>
</linearGradient>
</defs>
</svg>
