<svg width="33" height="33" viewBox="0 0 33 33" fill="none" xmlns="http://www.w3.org/2000/svg">
<path fill-rule="evenodd" clip-rule="evenodd" d="M7 10.5V6.12462C7 5.75995 7.14487 5.41021 7.40273 5.15235C7.66059 4.89449 8.01033 4.74962 8.375 4.74962H12.5V7.49962H9.75V10.5H7ZM9.75 21H7V25.3746C7 25.7393 7.14487 26.089 7.40273 26.3469C7.66059 26.6048 8.01033 26.7496 8.375 26.7496H12.5V23.9996H9.75V21ZM15.5827 2.04087L26.5828 4.79087C26.8803 4.86509 27.1446 5.03669 27.3334 5.27836C27.5223 5.52003 27.6249 5.81791 27.625 6.12462V25.3746C27.6249 25.6813 27.5223 25.9792 27.3334 26.2209C27.1446 26.4626 26.8803 26.6341 26.5828 26.7084L15.5827 29.4584C15.3801 29.5095 15.1684 29.5136 14.9638 29.4704C14.7593 29.4273 14.5673 29.3379 14.4026 29.2093C14.2379 29.0806 14.1047 28.916 14.0132 28.728C13.9218 28.54 13.8745 28.3337 13.875 28.1246V3.37462C13.8751 3.16576 13.9227 2.95966 14.0143 2.77196C14.1059 2.58426 14.2391 2.41989 14.4037 2.29133C14.5683 2.16278 14.76 2.07341 14.9643 2.03001C15.1686 1.98661 15.3801 1.99033 15.5827 2.04087ZM20.3263 16.9414C20.5824 16.6964 20.7342 16.3622 20.75 16.0081V15.4911C20.7502 15.1264 20.6055 14.7766 20.3478 14.5186C20.09 14.2607 19.7404 14.1156 19.3757 14.1154C19.011 14.1152 18.6612 14.2599 18.4032 14.5177C18.1452 14.7754 18.0002 15.1251 18 15.4897V16.0081C18.0158 16.3622 18.1676 16.6964 18.4237 16.9414C18.6799 17.1863 19.0206 17.323 19.375 17.323C19.7294 17.323 20.0701 17.1863 20.3263 16.9414Z" fill="white"/>
<g filter="url(#filter0_d_294_6)">
<path d="M11 15.5L2 15.5M2 15.5L5.6 19M2 15.5L5.6 12" stroke="white" stroke-width="2" stroke-linecap="round" stroke-linejoin="round" shape-rendering="crispEdges"/>
</g>
<defs>
<filter id="filter0_d_294_6" x="1" y="10" width="13" height="11" filterUnits="userSpaceOnUse" color-interpolation-filters="sRGB">
<feFlood flood-opacity="0" result="BackgroundImageFix"/>
<feColorMatrix in="SourceAlpha" type="matrix" values="0 0 0 0 0 0 0 0 0 0 0 0 0 0 0 0 0 0 127 0" result="hardAlpha"/>
<feOffset dx="1"/>
<feGaussianBlur stdDeviation="0.5"/>
<feComposite in2="hardAlpha" operator="out"/>
<feColorMatrix type="matrix" values="0 0 0 0 0.220833 0 0 0 0 0.184028 0 0 0 0 0.184028 0 0 0 0.1 0"/>
<feBlend mode="normal" in2="BackgroundImageFix" result="effect1_dropShadow_294_6"/>
<feBlend mode="normal" in="SourceGraphic" in2="effect1_dropShadow_294_6" result="shape"/>
</filter>
</defs>
</svg>
