<svg width="33" height="33" viewBox="0 0 33 33" fill="none" xmlns="http://www.w3.org/2000/svg">
<path d="M21 20C21 19.7348 20.8946 19.4804 20.7071 19.2929C20.5196 19.1054 20.2652 19 20 19H14C13.449 19 13 19.448 13 20V22H21V20ZM13 24H21V27H13V24Z" fill="url(#paint0_linear_101_74)"/>
<path d="M26 17C26 14.033 23.833 11.568 21 11.09V10C21 8.346 19.654 7 18 7H16C14.346 7 13 8.346 13 10V11.09C10.167 11.568 8 14.033 8 17V25C8 26.103 8.897 27 10 27H11V20C11 18.346 12.346 17 14 17H20C21.654 17 23 18.346 23 20V27H24C25.103 27 26 26.103 26 25V17ZM15 10C15 9.448 15.449 9 16 9H18C18.2652 9 18.5196 9.10536 18.7071 9.29289C18.8946 9.48043 19 9.73478 19 10V11H15V10Z" fill="url(#paint1_linear_101_74)"/>
<defs>
<linearGradient id="paint0_linear_101_74" x1="17" y1="19" x2="17" y2="27" gradientUnits="userSpaceOnUse">
<stop stop-color="white"/>
<stop offset="1" stop-color="white" stop-opacity="0"/>
</linearGradient>
<linearGradient id="paint1_linear_101_74" x1="17" y1="7" x2="17" y2="39.5" gradientUnits="userSpaceOnUse">
<stop stop-color="white"/>
<stop offset="1" stop-color="white" stop-opacity="0"/>
</linearGradient>
</defs>
</svg>
