<svg width="33" height="31" viewBox="0 0 33 31" fill="none" xmlns="http://www.w3.org/2000/svg">
<path d="M27.5 21.9583C27.5 22.3009 27.3551 22.6294 27.0973 22.8717C26.8394 23.1139 26.4897 23.25 26.125 23.25C25.7603 23.25 25.4106 23.1139 25.1527 22.8717C24.8949 22.6294 24.75 22.3009 24.75 21.9583V6.45834C24.75 6.11577 24.6051 5.78723 24.3473 5.54499C24.0894 5.30276 23.7397 5.16667 23.375 5.16667H4.125C3.76033 5.16667 3.41059 5.30276 3.15273 5.54499C2.89487 5.78723 2.75 6.11577 2.75 6.45834V23.25C2.75 23.9351 3.03973 24.5922 3.55546 25.0767C4.07118 25.5612 4.77065 25.8333 5.5 25.8333H26.125C28.3993 25.8333 30.25 24.0948 30.25 21.9583V9.04167H27.5V21.9583ZM16.5 9.04167H20.625V11.625H16.5V9.04167ZM16.5 14.2083H20.625V16.7917H16.5V14.2083ZM6.875 9.04167H13.75V16.7917H6.875V9.04167ZM6.875 21.9583V19.375H20.625V21.9583H6.875Z" fill="url(#paint0_linear_3_28)"/>
<defs>
<linearGradient id="paint0_linear_3_28" x1="16.5" y1="5.16667" x2="16.5" y2="42.5" gradientUnits="userSpaceOnUse">
<stop stop-color="white"/>
<stop offset="1" stop-color="white" stop-opacity="0"/>
</linearGradient>
</defs>
</svg>
