<svg width="29" height="21" viewBox="0 0 29 21" fill="none" xmlns="http://www.w3.org/2000/svg">
<path class="red" d="M25.5 16.9584C25.5 17.301 25.3551 17.6295 25.0973 17.8718C24.8394 18.114 24.4897 18.2501 24.125 18.2501C23.7603 18.2501 23.4106 18.114 23.1527 17.8718C22.8949 17.6295 22.75 17.301 22.75 16.9584V1.45841C22.75 1.11584 22.6051 0.787303 22.3473 0.545069C22.0894 0.302834 21.7397 0.166748 21.375 0.166748H2.125C1.76033 0.166748 1.41059 0.302834 1.15273 0.545069C0.894866 0.787303 0.75 1.11584 0.75 1.45841V18.2501C0.75 18.9352 1.03973 19.5923 1.55546 20.0768C2.07118 20.5612 2.77065 20.8334 3.5 20.8334H24.125C26.3993 20.8334 28.25 19.0948 28.25 16.9584V4.04175H25.5V16.9584ZM14.5 4.04175H18.625V6.62508H14.5V4.04175ZM14.5 9.20841H18.625V11.7917H14.5V9.20841ZM4.875 4.04175H11.75V11.7917H4.875V4.04175ZM4.875 16.9584V14.3751H18.625V16.9584H4.875Z" fill="white"/>
</svg>
