<svg width="33" height="33" viewBox="0 0 33 33" fill="none" xmlns="http://www.w3.org/2000/svg">
<path d="M28.875 9.625H20.625C20.2603 9.625 19.9106 9.76987 19.6527 10.0277C19.3949 10.2856 19.25 10.6353 19.25 11V15.125H16.5V5.5C16.5 5.13533 16.3551 4.78559 16.0973 4.52773C15.8394 4.26987 15.4897 4.125 15.125 4.125H4.125C3.76033 4.125 3.41059 4.26987 3.15273 4.52773C2.89487 4.78559 2.75 5.13533 2.75 5.5V27.5C2.75 27.8647 2.89487 28.2144 3.15273 28.4723C3.41059 28.7301 3.76033 28.875 4.125 28.875H28.875C29.2397 28.875 29.5894 28.7301 29.8473 28.4723C30.1051 28.2144 30.25 27.8647 30.25 27.5V11C30.25 10.6353 30.1051 10.2856 29.8473 10.0277C29.5894 9.76987 29.2397 9.625 28.875 9.625ZM11 8.25H13.75V11H11V8.25ZM8.25 22H5.5V19.25H8.25V22ZM8.25 16.5H5.5V13.75H8.25V16.5ZM8.25 11H5.5V8.25H8.25V11ZM13.75 22H11V19.25H13.75V22ZM13.75 16.5H11V13.75H13.75V16.5ZM26.125 22H23.375V19.25H26.125V22ZM26.125 16.5H23.375V13.75H26.125V16.5Z" fill="white"/>
</svg>
