<svg width="33" height="33" viewBox="0 0 33 33" fill="none" xmlns="http://www.w3.org/2000/svg">
<path d="M4.69425 18.9447L2.75 20.889L9.55487 23.8054L12.4726 30.6116L14.4169 28.6674L13.4447 23.8054L18.0001 19.25L22.9639 29.843L24.805 28.0019L23.1688 14.0827L27.0572 10.1929C27.3199 9.93919 27.5294 9.63574 27.6735 9.30023C27.8177 8.96472 27.8935 8.60387 27.8967 8.23872C27.8999 7.87358 27.8303 7.51146 27.692 7.1735C27.5537 6.83553 27.3495 6.52849 27.0913 6.27029C26.8331 6.01208 26.5261 5.80788 26.1881 5.66961C25.8502 5.53134 25.488 5.46176 25.1229 5.46493C24.7578 5.46811 24.3969 5.54397 24.0614 5.68809C23.7259 5.83222 23.4224 6.04172 23.1688 6.30437L19.1771 10.296L5.258 8.65837L3.51863 10.3991L14.0291 15.4454L9.55625 19.9182L4.69425 18.9447Z" fill="white"/>
</svg>
