<svg width="33" height="33" viewBox="0 0 33 33" fill="none" xmlns="http://www.w3.org/2000/svg">
<path d="M5.63702 20.8161L7.88702 24.8528C8.0364 25.1205 8.2822 25.3158 8.57037 25.3956C8.85855 25.4755 9.16552 25.4334 9.42377 25.2786L10.9943 24.3383C11.6468 24.8714 12.3679 25.3089 13.1261 25.6356V27.4999C13.1261 27.8093 13.2447 28.1061 13.4556 28.3249C13.6666 28.5437 13.9528 28.6666 14.2511 28.6666H18.7511C19.0495 28.6666 19.3357 28.5437 19.5466 28.3249C19.7576 28.1061 19.8761 27.8093 19.8761 27.4999V25.6356C20.6403 25.3056 21.3576 24.8692 22.008 24.3383L23.5785 25.2786C24.1151 25.5994 24.8059 25.4069 25.1153 24.8528L27.3653 20.8161C27.5133 20.548 27.5533 20.2301 27.4763 19.9316C27.3994 19.6331 27.2119 19.3782 26.9546 19.2224L25.4111 18.2973C25.5317 17.4368 25.531 16.5628 25.4089 15.7026L26.9524 14.7774C27.4879 14.4566 27.6735 13.7391 27.363 13.1838L25.113 9.14709C24.9636 8.87933 24.7178 8.68406 24.4297 8.60421C24.1415 8.52435 23.8345 8.56645 23.5763 8.72125L22.0058 9.66159C21.3561 9.13003 20.6392 8.6935 19.875 8.36425V6.49992C19.875 6.1905 19.7565 5.89375 19.5455 5.67496C19.3345 5.45617 19.0484 5.33325 18.75 5.33325H14.25C13.9516 5.33325 13.6655 5.45617 13.4545 5.67496C13.2435 5.89375 13.125 6.1905 13.125 6.49992V8.36425C12.3608 8.6942 11.6436 9.13066 10.9931 9.66159L9.42377 8.72125C9.29593 8.64445 9.15475 8.59454 9.00829 8.57437C8.86184 8.55421 8.71299 8.56419 8.57025 8.60374C8.42752 8.64329 8.29371 8.71164 8.17647 8.80487C8.05924 8.8981 7.96088 9.01439 7.88702 9.14709L5.63702 13.1838C5.48896 13.4519 5.44903 13.7698 5.52594 14.0683C5.60285 14.3667 5.79036 14.6216 6.04764 14.7774L7.59114 15.7026C7.4698 16.5629 7.4698 17.4369 7.59114 18.2973L6.04764 19.2224C5.51214 19.5433 5.32652 20.2608 5.63702 20.8161ZM16.5 12.3333C18.9818 12.3333 21 14.4263 21 16.9999C21 19.5736 18.9818 21.6666 16.5 21.6666C14.0183 21.6666 12 19.5736 12 16.9999C12 14.4263 14.0183 12.3333 16.5 12.3333Z" fill="url(#paint0_linear_101_103)"/>
<defs>
<linearGradient id="paint0_linear_101_103" x1="16.5005" y1="5.33325" x2="16.5005" y2="42" gradientUnits="userSpaceOnUse">
<stop stop-color="white"/>
<stop offset="1" stop-color="white" stop-opacity="0"/>
</linearGradient>
</defs>
</svg>
