<svg width="33" height="33" viewBox="0 0 33 33" fill="none" xmlns="http://www.w3.org/2000/svg">
<path d="M5.63702 20.8163L7.88702 24.853C8.0364 25.1208 8.2822 25.316 8.57037 25.3959C8.85855 25.4757 9.16552 25.4336 9.42377 25.2788L10.9943 24.3385C11.6468 24.8717 12.3679 25.3092 13.1261 25.6358V27.5002C13.1261 27.8096 13.2447 28.1063 13.4556 28.3251C13.6666 28.5439 13.9528 28.6668 14.2511 28.6668H18.7511C19.0495 28.6668 19.3357 28.5439 19.5466 28.3251C19.7576 28.1063 19.8761 27.8096 19.8761 27.5002V25.6358C20.6403 25.3059 21.3576 24.8694 22.008 24.3385L23.5785 25.2788C24.1151 25.5997 24.8059 25.4072 25.1153 24.853L27.3653 20.8163C27.5133 20.5482 27.5533 20.2303 27.4763 19.9318C27.3994 19.6333 27.2119 19.3784 26.9546 19.2227L25.4111 18.2975C25.5317 17.4371 25.531 16.563 25.4089 15.7028L26.9524 14.7777C27.4879 14.4568 27.6735 13.7393 27.363 13.184L25.113 9.14733C24.9636 8.87958 24.7178 8.6843 24.4297 8.60445C24.1415 8.5246 23.8345 8.5667 23.5763 8.7215L22.0058 9.66183C21.3561 9.13027 20.6392 8.69375 19.875 8.3645V6.50016C19.875 6.19074 19.7565 5.894 19.5455 5.6752C19.3345 5.45641 19.0484 5.3335 18.75 5.3335H14.25C13.9516 5.3335 13.6655 5.45641 13.4545 5.6752C13.2435 5.894 13.125 6.19074 13.125 6.50016V8.3645C12.3608 8.69444 11.6436 9.13091 10.9931 9.66183L9.42377 8.7215C9.29593 8.64469 9.15475 8.59478 9.00829 8.57462C8.86184 8.55445 8.71299 8.56443 8.57025 8.60398C8.42752 8.64353 8.29371 8.71188 8.17647 8.80511C8.05924 8.89835 7.96088 9.01464 7.88702 9.14733L5.63702 13.184C5.48896 13.4521 5.44903 13.77 5.52594 14.0685C5.60285 14.367 5.79036 14.6219 6.04764 14.7777L7.59114 15.7028C7.4698 16.5631 7.4698 17.4372 7.59114 18.2975L6.04764 19.2227C5.51214 19.5435 5.32652 20.261 5.63702 20.8163ZM16.5 12.3335C18.9818 12.3335 21 14.4265 21 17.0002C21 19.5738 18.9818 21.6668 16.5 21.6668C14.0183 21.6668 12 19.5738 12 17.0002C12 14.4265 14.0183 12.3335 16.5 12.3335Z" fill="url(#paint0_linear_173_47)"/>
<path d="M5.63702 20.8163L7.88702 24.853C8.0364 25.1208 8.2822 25.316 8.57037 25.3959C8.85855 25.4757 9.16552 25.4336 9.42377 25.2788L10.9943 24.3385C11.6468 24.8717 12.3679 25.3092 13.1261 25.6358V27.5002C13.1261 27.8096 13.2447 28.1063 13.4556 28.3251C13.6666 28.5439 13.9528 28.6668 14.2511 28.6668H18.7511C19.0495 28.6668 19.3357 28.5439 19.5466 28.3251C19.7576 28.1063 19.8761 27.8096 19.8761 27.5002V25.6358C20.6403 25.3059 21.3576 24.8694 22.008 24.3385L23.5785 25.2788C24.1151 25.5997 24.8059 25.4072 25.1153 24.853L27.3653 20.8163C27.5133 20.5482 27.5533 20.2303 27.4763 19.9318C27.3994 19.6333 27.2119 19.3784 26.9546 19.2227L25.4111 18.2975C25.5317 17.4371 25.531 16.563 25.4089 15.7028L26.9524 14.7777C27.4879 14.4568 27.6735 13.7393 27.363 13.184L25.113 9.14733C24.9636 8.87958 24.7178 8.6843 24.4297 8.60445C24.1415 8.5246 23.8345 8.5667 23.5763 8.7215L22.0058 9.66183C21.3561 9.13027 20.6392 8.69375 19.875 8.3645V6.50016C19.875 6.19074 19.7565 5.894 19.5455 5.6752C19.3345 5.45641 19.0484 5.3335 18.75 5.3335H14.25C13.9516 5.3335 13.6655 5.45641 13.4545 5.6752C13.2435 5.894 13.125 6.19074 13.125 6.50016V8.3645C12.3608 8.69444 11.6436 9.13091 10.9931 9.66183L9.42377 8.7215C9.29593 8.64469 9.15475 8.59478 9.00829 8.57462C8.86184 8.55445 8.71299 8.56443 8.57025 8.60398C8.42752 8.64353 8.29371 8.71188 8.17647 8.80511C8.05924 8.89835 7.96088 9.01464 7.88702 9.14733L5.63702 13.184C5.48896 13.4521 5.44903 13.77 5.52594 14.0685C5.60285 14.367 5.79036 14.6219 6.04764 14.7777L7.59114 15.7028C7.4698 16.5631 7.4698 17.4372 7.59114 18.2975L6.04764 19.2227C5.51214 19.5435 5.32652 20.261 5.63702 20.8163ZM16.5 12.3335C18.9818 12.3335 21 14.4265 21 17.0002C21 19.5738 18.9818 21.6668 16.5 21.6668C14.0183 21.6668 12 19.5738 12 17.0002C12 14.4265 14.0183 12.3335 16.5 12.3335Z" fill="white"/>
<defs>
<linearGradient id="paint0_linear_173_47" x1="16.5005" y1="5.3335" x2="16.5005" y2="42.0002" gradientUnits="userSpaceOnUse">
<stop stop-color="white"/>
<stop offset="1" stop-color="white" stop-opacity="0"/>
</linearGradient>
</defs>
</svg>
