<svg width="33" height="33" viewBox="0 0 33 33" fill="none" xmlns="http://www.w3.org/2000/svg">
<path d="M9.99996 28.6666H24C24.6188 28.6666 25.2123 28.4208 25.6499 27.9832C26.0875 27.5456 26.3333 26.9521 26.3333 26.3333V7.66659C26.3333 7.04775 26.0875 6.45425 25.6499 6.01667C25.2123 5.57908 24.6188 5.33325 24 5.33325H9.99996C9.38112 5.33325 8.78763 5.57908 8.35004 6.01667C7.91246 6.45425 7.66663 7.04775 7.66663 7.66659V26.3333C7.66663 26.9521 7.91246 27.5456 8.35004 27.9832C8.78763 28.4208 9.38112 28.6666 9.99996 28.6666ZM13.5 25.1666H11.1666V22.8333H13.5V25.1666ZM13.5 20.4999H11.1666V18.1666H13.5V20.4999ZM13.5 15.8333H11.1666V13.4999H13.5V15.8333ZM18.1666 25.1666H15.8333V22.8333H18.1666V25.1666ZM18.1666 20.4999H15.8333V18.1666H18.1666V20.4999ZM18.1666 15.8333H15.8333V13.4999H18.1666V15.8333ZM22.8333 25.1666H20.5V18.1666H22.8333V25.1666ZM22.8333 15.8333H20.5V13.4999H22.8333V15.8333ZM9.99996 7.66659H24V11.1666H9.99996V7.66659Z" fill="url(#paint0_linear_101_89)"/>
<defs>
<linearGradient id="paint0_linear_101_89" x1="17" y1="5.33325" x2="17" y2="39" gradientUnits="userSpaceOnUse">
<stop stop-color="white"/>
<stop offset="1" stop-color="white" stop-opacity="0"/>
</linearGradient>
</defs>
</svg>
