<svg width="33" height="33" viewBox="0 0 33 33" fill="none" xmlns="http://www.w3.org/2000/svg">
<path d="M10 28.6668H24C24.6189 28.6668 25.2124 28.421 25.6499 27.9834C26.0875 27.5458 26.3334 26.9523 26.3334 26.3335V7.66683C26.3334 7.04799 26.0875 6.4545 25.6499 6.01691C25.2124 5.57933 24.6189 5.3335 24 5.3335H10C9.38118 5.3335 8.78769 5.57933 8.3501 6.01691C7.91252 6.4545 7.66669 7.04799 7.66669 7.66683V26.3335C7.66669 26.9523 7.91252 27.5458 8.3501 27.9834C8.78769 28.421 9.38118 28.6668 10 28.6668ZM13.5 25.1668H11.1667V22.8335H13.5V25.1668ZM13.5 20.5002H11.1667V18.1668H13.5V20.5002ZM13.5 15.8335H11.1667V13.5002H13.5V15.8335ZM18.1667 25.1668H15.8334V22.8335H18.1667V25.1668ZM18.1667 20.5002H15.8334V18.1668H18.1667V20.5002ZM18.1667 15.8335H15.8334V13.5002H18.1667V15.8335ZM22.8334 25.1668H20.5V18.1668H22.8334V25.1668ZM22.8334 15.8335H20.5V13.5002H22.8334V15.8335ZM10 7.66683H24V11.1668H10V7.66683Z" fill="url(#paint0_linear_173_33)"/>
<path d="M10 28.6668H24C24.6189 28.6668 25.2124 28.421 25.6499 27.9834C26.0875 27.5458 26.3334 26.9523 26.3334 26.3335V7.66683C26.3334 7.04799 26.0875 6.4545 25.6499 6.01691C25.2124 5.57933 24.6189 5.3335 24 5.3335H10C9.38118 5.3335 8.78769 5.57933 8.3501 6.01691C7.91252 6.4545 7.66669 7.04799 7.66669 7.66683V26.3335C7.66669 26.9523 7.91252 27.5458 8.3501 27.9834C8.78769 28.421 9.38118 28.6668 10 28.6668ZM13.5 25.1668H11.1667V22.8335H13.5V25.1668ZM13.5 20.5002H11.1667V18.1668H13.5V20.5002ZM13.5 15.8335H11.1667V13.5002H13.5V15.8335ZM18.1667 25.1668H15.8334V22.8335H18.1667V25.1668ZM18.1667 20.5002H15.8334V18.1668H18.1667V20.5002ZM18.1667 15.8335H15.8334V13.5002H18.1667V15.8335ZM22.8334 25.1668H20.5V18.1668H22.8334V25.1668ZM22.8334 15.8335H20.5V13.5002H22.8334V15.8335ZM10 7.66683H24V11.1668H10V7.66683Z" fill="white"/>
<defs>
<linearGradient id="paint0_linear_173_33" x1="17" y1="5.3335" x2="17" y2="39.0002" gradientUnits="userSpaceOnUse">
<stop stop-color="white"/>
<stop offset="1" stop-color="white" stop-opacity="0"/>
</linearGradient>
</defs>
</svg>
