<svg width="33" height="33" viewBox="0 0 33 33" fill="none" xmlns="http://www.w3.org/2000/svg">
<path d="M28.5615 13.9631L26.6805 8.32013C26.4076 7.49854 25.8828 6.78384 25.1805 6.27757C24.4783 5.77131 23.6343 5.49923 22.7686 5.5H10.2314C9.36566 5.49923 8.52172 5.77131 7.81947 6.27757C7.11721 6.78384 6.59237 7.49854 6.3195 8.32013L4.4385 13.9631C3.93831 14.1724 3.51115 14.5249 3.21072 14.9763C2.91029 15.4277 2.75 15.9578 2.75 16.5V23.375C2.75 24.3898 3.3055 25.267 4.125 25.7441V28.875C4.125 29.2397 4.26987 29.5894 4.52773 29.8473C4.78559 30.1051 5.13533 30.25 5.5 30.25H6.875C7.23967 30.25 7.58941 30.1051 7.84727 29.8473C8.10513 29.5894 8.25 29.2397 8.25 28.875V26.125H24.75V28.875C24.75 29.2397 24.8949 29.5894 25.1527 29.8473C25.4106 30.1051 25.7603 30.25 26.125 30.25H27.5C27.8647 30.25 28.2144 30.1051 28.4723 29.8473C28.7301 29.5894 28.875 29.2397 28.875 28.875V25.7441C29.2922 25.5049 29.6389 25.1599 29.8803 24.744C30.1217 24.3281 30.2492 23.8559 30.25 23.375V16.5C30.25 15.9578 30.0897 15.4277 29.7893 14.9763C29.4889 14.5249 29.0617 14.1724 28.5615 13.9631ZM10.2314 8.25H22.7673C23.3599 8.25 23.8851 8.62675 24.0721 9.1905L25.5929 13.75H7.40712L8.9265 9.1905C9.01773 8.91659 9.19286 8.67835 9.42707 8.50954C9.66127 8.34074 9.94267 8.24993 10.2314 8.25ZM7.5625 22C7.29156 21.9999 7.02329 21.9465 6.77301 21.8427C6.52272 21.7389 6.29533 21.5869 6.10381 21.3952C5.91229 21.2036 5.76039 20.9761 5.65679 20.7257C5.55319 20.4754 5.49991 20.2071 5.5 19.9361C5.50009 19.6652 5.55355 19.3969 5.65731 19.1466C5.76108 18.8963 5.91313 18.669 6.10478 18.4774C6.29643 18.2859 6.52392 18.134 6.77427 18.0304C7.02463 17.9268 7.29293 17.8735 7.56387 17.8736C8.11107 17.8738 8.63577 18.0914 9.02257 18.4784C9.40936 18.8655 9.62656 19.3903 9.62637 19.9375C9.62619 20.4847 9.40865 21.0094 9.0216 21.3962C8.63454 21.783 8.10969 22.0002 7.5625 22ZM25.4375 22C25.1666 21.9999 24.8983 21.9465 24.648 21.8427C24.3977 21.7389 24.1703 21.5869 23.9788 21.3952C23.7873 21.2036 23.6354 20.9761 23.5318 20.7257C23.4282 20.4754 23.3749 20.2071 23.375 19.9361C23.3751 19.6652 23.4285 19.3969 23.5323 19.1466C23.6361 18.8963 23.7881 18.669 23.9798 18.4774C24.1714 18.2859 24.3989 18.134 24.6493 18.0304C24.8996 17.9268 25.1679 17.8735 25.4389 17.8736C25.9861 17.8738 26.5108 18.0914 26.8976 18.4784C27.2844 18.8655 27.5016 19.3903 27.5014 19.9375C27.5012 20.4847 27.2836 21.0094 26.8966 21.3962C26.5095 21.783 25.9847 22.0002 25.4375 22Z" fill="url(#paint0_linear_173_29)"/>
<path d="M28.5615 13.9631L26.6805 8.32013C26.4076 7.49854 25.8828 6.78384 25.1805 6.27757C24.4783 5.77131 23.6343 5.49923 22.7686 5.5H10.2314C9.36566 5.49923 8.52172 5.77131 7.81947 6.27757C7.11721 6.78384 6.59237 7.49854 6.3195 8.32013L4.4385 13.9631C3.93831 14.1724 3.51115 14.5249 3.21072 14.9763C2.91029 15.4277 2.75 15.9578 2.75 16.5V23.375C2.75 24.3898 3.3055 25.267 4.125 25.7441V28.875C4.125 29.2397 4.26987 29.5894 4.52773 29.8473C4.78559 30.1051 5.13533 30.25 5.5 30.25H6.875C7.23967 30.25 7.58941 30.1051 7.84727 29.8473C8.10513 29.5894 8.25 29.2397 8.25 28.875V26.125H24.75V28.875C24.75 29.2397 24.8949 29.5894 25.1527 29.8473C25.4106 30.1051 25.7603 30.25 26.125 30.25H27.5C27.8647 30.25 28.2144 30.1051 28.4723 29.8473C28.7301 29.5894 28.875 29.2397 28.875 28.875V25.7441C29.2922 25.5049 29.6389 25.1599 29.8803 24.744C30.1217 24.3281 30.2492 23.8559 30.25 23.375V16.5C30.25 15.9578 30.0897 15.4277 29.7893 14.9763C29.4889 14.5249 29.0617 14.1724 28.5615 13.9631ZM10.2314 8.25H22.7673C23.3599 8.25 23.8851 8.62675 24.0721 9.1905L25.5929 13.75H7.40712L8.9265 9.1905C9.01773 8.91659 9.19286 8.67835 9.42707 8.50954C9.66127 8.34074 9.94267 8.24993 10.2314 8.25ZM7.5625 22C7.29156 21.9999 7.02329 21.9465 6.77301 21.8427C6.52272 21.7389 6.29533 21.5869 6.10381 21.3952C5.91229 21.2036 5.76039 20.9761 5.65679 20.7257C5.55319 20.4754 5.49991 20.2071 5.5 19.9361C5.50009 19.6652 5.55355 19.3969 5.65731 19.1466C5.76108 18.8963 5.91313 18.669 6.10478 18.4774C6.29643 18.2859 6.52392 18.134 6.77427 18.0304C7.02463 17.9268 7.29293 17.8735 7.56387 17.8736C8.11107 17.8738 8.63577 18.0914 9.02257 18.4784C9.40936 18.8655 9.62656 19.3903 9.62637 19.9375C9.62619 20.4847 9.40865 21.0094 9.0216 21.3962C8.63454 21.783 8.10969 22.0002 7.5625 22ZM25.4375 22C25.1666 21.9999 24.8983 21.9465 24.648 21.8427C24.3977 21.7389 24.1703 21.5869 23.9788 21.3952C23.7873 21.2036 23.6354 20.9761 23.5318 20.7257C23.4282 20.4754 23.3749 20.2071 23.375 19.9361C23.3751 19.6652 23.4285 19.3969 23.5323 19.1466C23.6361 18.8963 23.7881 18.669 23.9798 18.4774C24.1714 18.2859 24.3989 18.134 24.6493 18.0304C24.8996 17.9268 25.1679 17.8735 25.4389 17.8736C25.9861 17.8738 26.5108 18.0914 26.8976 18.4784C27.2844 18.8655 27.5016 19.3903 27.5014 19.9375C27.5012 20.4847 27.2836 21.0094 26.8966 21.3962C26.5095 21.783 25.9847 22.0002 25.4375 22Z" fill="white"/>
<defs>
<linearGradient id="paint0_linear_173_29" x1="16.5" y1="5.5" x2="16.5" y2="47.1428" gradientUnits="userSpaceOnUse">
<stop stop-color="white"/>
<stop offset="1" stop-color="white" stop-opacity="0"/>
</linearGradient>
</defs>
</svg>
